<mxfile host="app.diagrams.net" agent="Mozilla/5.0 (Windows NT 10.0; Win64; x64) AppleWebKit/537.36 (KHTML, like Gecko) Chrome/127.0.0.0 Safari/537.36" version="24.7.7">
  <diagram name="Page-1" id="dipAg9F32XSySP343pbI">
    <mxGraphModel dx="1434" dy="738" grid="1" gridSize="10" guides="1" tooltips="1" connect="1" arrows="1" fold="1" page="1" pageScale="1" pageWidth="1100" pageHeight="850" math="0" shadow="0">
      <root>
        <mxCell id="0" />
        <mxCell id="1" parent="0" />
        <mxCell id="JdqeZymZgtsDF4_kYVaT-68" style="edgeStyle=orthogonalEdgeStyle;rounded=0;orthogonalLoop=1;jettySize=auto;html=1;entryX=0.5;entryY=0;entryDx=0;entryDy=0;" parent="1" source="JdqeZymZgtsDF4_kYVaT-3" target="JdqeZymZgtsDF4_kYVaT-5" edge="1">
          <mxGeometry relative="1" as="geometry" />
        </mxCell>
        <mxCell id="JdqeZymZgtsDF4_kYVaT-3" value="Data Collection" style="rounded=1;whiteSpace=wrap;html=1;fontStyle=1;fillColor=#fff2cc;strokeColor=#d6b656;" parent="1" vertex="1">
          <mxGeometry x="398" y="94" width="120" height="40" as="geometry" />
        </mxCell>
        <mxCell id="JdqeZymZgtsDF4_kYVaT-70" style="edgeStyle=orthogonalEdgeStyle;rounded=0;orthogonalLoop=1;jettySize=auto;html=1;entryX=0.5;entryY=0;entryDx=0;entryDy=0;" parent="1" source="JdqeZymZgtsDF4_kYVaT-5" target="JdqeZymZgtsDF4_kYVaT-7" edge="1">
          <mxGeometry relative="1" as="geometry" />
        </mxCell>
        <mxCell id="JdqeZymZgtsDF4_kYVaT-5" value="Data Cleaning" style="rounded=1;whiteSpace=wrap;html=1;fontStyle=1;fillColor=#fff2cc;strokeColor=#d6b656;" parent="1" vertex="1">
          <mxGeometry x="398" y="167.5" width="120" height="40" as="geometry" />
        </mxCell>
        <mxCell id="JdqeZymZgtsDF4_kYVaT-71" style="edgeStyle=orthogonalEdgeStyle;rounded=0;orthogonalLoop=1;jettySize=auto;html=1;entryX=0.5;entryY=0;entryDx=0;entryDy=0;" parent="1" source="JdqeZymZgtsDF4_kYVaT-7" target="JdqeZymZgtsDF4_kYVaT-9" edge="1">
          <mxGeometry relative="1" as="geometry" />
        </mxCell>
        <mxCell id="JdqeZymZgtsDF4_kYVaT-7" value="Data Analysis&lt;br&gt;and Visualization" style="rounded=1;whiteSpace=wrap;html=1;fontStyle=1;fillColor=#fff2cc;strokeColor=#d6b656;" parent="1" vertex="1">
          <mxGeometry x="398" y="242" width="120" height="40" as="geometry" />
        </mxCell>
        <mxCell id="JdqeZymZgtsDF4_kYVaT-72" style="edgeStyle=orthogonalEdgeStyle;rounded=0;orthogonalLoop=1;jettySize=auto;html=1;entryX=0.5;entryY=0;entryDx=0;entryDy=0;" parent="1" source="JdqeZymZgtsDF4_kYVaT-9" target="JdqeZymZgtsDF4_kYVaT-16" edge="1">
          <mxGeometry relative="1" as="geometry" />
        </mxCell>
        <mxCell id="JdqeZymZgtsDF4_kYVaT-9" value="Data Preprocessing" style="rounded=1;whiteSpace=wrap;html=1;fontStyle=1;fillColor=#fff2cc;strokeColor=#d6b656;" parent="1" vertex="1">
          <mxGeometry x="398" y="321.5" width="120" height="40" as="geometry" />
        </mxCell>
        <mxCell id="JdqeZymZgtsDF4_kYVaT-16" value="Dataset Split" style="rounded=1;whiteSpace=wrap;html=1;fontStyle=1;fillColor=#fff2cc;strokeColor=#d6b656;" parent="1" vertex="1">
          <mxGeometry x="398" y="403" width="120" height="40" as="geometry" />
        </mxCell>
        <mxCell id="JdqeZymZgtsDF4_kYVaT-18" value="" style="group" parent="1" vertex="1" connectable="0">
          <mxGeometry x="587.5" y="279" width="61" height="72.5" as="geometry" />
        </mxCell>
        <mxCell id="JdqeZymZgtsDF4_kYVaT-19" value="Train&lt;br&gt;Set" style="shape=cylinder3;whiteSpace=wrap;html=1;boundedLbl=1;backgroundOutline=1;size=15;fillColor=#f9f7ed;strokeColor=#36393d;" parent="JdqeZymZgtsDF4_kYVaT-18" vertex="1">
          <mxGeometry width="60" height="72.5" as="geometry" />
        </mxCell>
        <mxCell id="JdqeZymZgtsDF4_kYVaT-20" value="80%" style="text;html=1;align=center;verticalAlign=middle;whiteSpace=wrap;rounded=0;" parent="JdqeZymZgtsDF4_kYVaT-18" vertex="1">
          <mxGeometry x="1" y="6.5" width="60" height="20" as="geometry" />
        </mxCell>
        <mxCell id="JdqeZymZgtsDF4_kYVaT-102" value="" style="edgeStyle=orthogonalEdgeStyle;rounded=0;orthogonalLoop=1;jettySize=auto;html=1;" parent="1" source="JdqeZymZgtsDF4_kYVaT-25" target="JdqeZymZgtsDF4_kYVaT-27" edge="1">
          <mxGeometry relative="1" as="geometry" />
        </mxCell>
        <mxCell id="JdqeZymZgtsDF4_kYVaT-25" value="Model Training" style="rounded=1;whiteSpace=wrap;html=1;fontStyle=1;fillColor=#fff2cc;strokeColor=#d6b656;" parent="1" vertex="1">
          <mxGeometry x="557.5" y="168" width="120" height="40" as="geometry" />
        </mxCell>
        <mxCell id="JdqeZymZgtsDF4_kYVaT-26" value="" style="edgeStyle=orthogonalEdgeStyle;rounded=0;orthogonalLoop=1;jettySize=auto;html=1;" parent="1" source="JdqeZymZgtsDF4_kYVaT-27" target="JdqeZymZgtsDF4_kYVaT-33" edge="1">
          <mxGeometry relative="1" as="geometry" />
        </mxCell>
        <mxCell id="JdqeZymZgtsDF4_kYVaT-27" value="Model&lt;br&gt;Performance&lt;br&gt;Evaluation" style="rounded=1;whiteSpace=wrap;html=1;fontStyle=1;fillColor=#fff2cc;strokeColor=#d6b656;" parent="1" vertex="1">
          <mxGeometry x="761.5" y="158" width="120" height="60" as="geometry" />
        </mxCell>
        <mxCell id="JdqeZymZgtsDF4_kYVaT-28" value="" style="group" parent="1" vertex="1" connectable="0">
          <mxGeometry x="678" y="277" width="61" height="73" as="geometry" />
        </mxCell>
        <mxCell id="JdqeZymZgtsDF4_kYVaT-29" value="Test&lt;br&gt;Set" style="shape=cylinder3;whiteSpace=wrap;html=1;boundedLbl=1;backgroundOutline=1;size=15;fillColor=#f9f7ed;strokeColor=#36393d;" parent="JdqeZymZgtsDF4_kYVaT-28" vertex="1">
          <mxGeometry width="60" height="73" as="geometry" />
        </mxCell>
        <mxCell id="JdqeZymZgtsDF4_kYVaT-30" value="20%" style="text;html=1;align=center;verticalAlign=middle;whiteSpace=wrap;rounded=0;" parent="JdqeZymZgtsDF4_kYVaT-28" vertex="1">
          <mxGeometry x="1" y="5.059860265945466" width="60" height="22.77034032003606" as="geometry" />
        </mxCell>
        <mxCell id="JdqeZymZgtsDF4_kYVaT-32" value="" style="edgeStyle=orthogonalEdgeStyle;rounded=0;orthogonalLoop=1;jettySize=auto;html=1;" parent="1" source="JdqeZymZgtsDF4_kYVaT-33" target="JdqeZymZgtsDF4_kYVaT-38" edge="1">
          <mxGeometry relative="1" as="geometry" />
        </mxCell>
        <mxCell id="JdqeZymZgtsDF4_kYVaT-33" value="Model Optimization" style="rounded=1;whiteSpace=wrap;html=1;fontStyle=1;fillColor=#fff2cc;strokeColor=#d6b656;" parent="1" vertex="1">
          <mxGeometry x="762" y="254" width="119.5" height="40" as="geometry" />
        </mxCell>
        <mxCell id="JdqeZymZgtsDF4_kYVaT-107" value="" style="edgeStyle=orthogonalEdgeStyle;rounded=0;orthogonalLoop=1;jettySize=auto;html=1;" parent="1" source="JdqeZymZgtsDF4_kYVaT-38" target="JdqeZymZgtsDF4_kYVaT-106" edge="1">
          <mxGeometry relative="1" as="geometry" />
        </mxCell>
        <mxCell id="JdqeZymZgtsDF4_kYVaT-38" value="Final Evaluation" style="rounded=1;whiteSpace=wrap;html=1;fontStyle=1;fillColor=#fff2cc;strokeColor=#d6b656;" parent="1" vertex="1">
          <mxGeometry x="762" y="353" width="119.5" height="40" as="geometry" />
        </mxCell>
        <mxCell id="JdqeZymZgtsDF4_kYVaT-42" value="" style="group" parent="1" vertex="1" connectable="0">
          <mxGeometry x="152" y="960" width="179" height="376" as="geometry" />
        </mxCell>
        <mxCell id="JdqeZymZgtsDF4_kYVaT-43" value="" style="rounded=1;whiteSpace=wrap;html=1;fillColor=#d5e8d4;strokeColor=#82b366;" parent="JdqeZymZgtsDF4_kYVaT-42" vertex="1">
          <mxGeometry width="179" height="340" as="geometry" />
        </mxCell>
        <mxCell id="JdqeZymZgtsDF4_kYVaT-44" style="edgeStyle=orthogonalEdgeStyle;rounded=0;orthogonalLoop=1;jettySize=auto;html=1;entryX=0.5;entryY=0;entryDx=0;entryDy=0;" parent="JdqeZymZgtsDF4_kYVaT-42" source="JdqeZymZgtsDF4_kYVaT-45" target="JdqeZymZgtsDF4_kYVaT-47" edge="1">
          <mxGeometry relative="1" as="geometry" />
        </mxCell>
        <mxCell id="JdqeZymZgtsDF4_kYVaT-45" value="Image" style="shape=cube;whiteSpace=wrap;html=1;boundedLbl=1;backgroundOutline=1;darkOpacity=0.05;darkOpacity2=0.1;fillColor=#ffcccc;strokeColor=#36393d;" parent="JdqeZymZgtsDF4_kYVaT-42" vertex="1">
          <mxGeometry x="36.75" y="16.5" width="105" height="83" as="geometry" />
        </mxCell>
        <mxCell id="JdqeZymZgtsDF4_kYVaT-46" value="" style="edgeStyle=orthogonalEdgeStyle;rounded=0;orthogonalLoop=1;jettySize=auto;html=1;" parent="JdqeZymZgtsDF4_kYVaT-42" source="JdqeZymZgtsDF4_kYVaT-47" target="JdqeZymZgtsDF4_kYVaT-48" edge="1">
          <mxGeometry relative="1" as="geometry" />
        </mxCell>
        <mxCell id="JdqeZymZgtsDF4_kYVaT-47" value="Highest&lt;br&gt;Performing Model" style="rounded=0;whiteSpace=wrap;html=1;fontStyle=1;fillColor=#f9f7ed;strokeColor=#36393d;" parent="JdqeZymZgtsDF4_kYVaT-42" vertex="1">
          <mxGeometry x="29.25" y="154.5" width="120" height="60" as="geometry" />
        </mxCell>
        <mxCell id="JdqeZymZgtsDF4_kYVaT-48" value="&lt;div&gt;Classification&lt;br&gt;Output&lt;/div&gt;" style="shape=parallelogram;perimeter=parallelogramPerimeter;whiteSpace=wrap;html=1;fixedSize=1;fillColor=#f8cecc;strokeColor=#b85450;" parent="JdqeZymZgtsDF4_kYVaT-42" vertex="1">
          <mxGeometry x="29.379999999999995" y="262.75" width="120.25" height="54.5" as="geometry" />
        </mxCell>
        <mxCell id="JdqeZymZgtsDF4_kYVaT-49" value="&lt;font style=&quot;font-size: 12px;&quot;&gt;Model Workflow&lt;/font&gt;" style="text;html=1;align=center;verticalAlign=middle;whiteSpace=wrap;rounded=0;fontStyle=1" parent="JdqeZymZgtsDF4_kYVaT-42" vertex="1">
          <mxGeometry x="40" y="346" width="114.25" height="30" as="geometry" />
        </mxCell>
        <mxCell id="JdqeZymZgtsDF4_kYVaT-50" value="&lt;b&gt;&lt;font style=&quot;font-size: 10px;&quot;&gt;12&lt;/font&gt;&lt;/b&gt;" style="text;html=1;align=center;verticalAlign=middle;whiteSpace=wrap;rounded=0;" parent="JdqeZymZgtsDF4_kYVaT-42" vertex="1">
          <mxGeometry x="144.75" y="139.5" width="20" height="15" as="geometry" />
        </mxCell>
        <mxCell id="JdqeZymZgtsDF4_kYVaT-53" value="&lt;b&gt;&lt;font style=&quot;font-size: 10px;&quot;&gt;1&lt;/font&gt;&lt;/b&gt;" style="text;html=1;align=center;verticalAlign=middle;whiteSpace=wrap;rounded=0;" parent="1" vertex="1">
          <mxGeometry x="510" y="80" width="20" height="15" as="geometry" />
        </mxCell>
        <mxCell id="JdqeZymZgtsDF4_kYVaT-54" value="&lt;b&gt;&lt;font style=&quot;font-size: 10px;&quot;&gt;2&lt;/font&gt;&lt;/b&gt;" style="text;html=1;align=center;verticalAlign=middle;whiteSpace=wrap;rounded=0;" parent="1" vertex="1">
          <mxGeometry x="511" y="153" width="20" height="15" as="geometry" />
        </mxCell>
        <mxCell id="JdqeZymZgtsDF4_kYVaT-55" value="&lt;b&gt;&lt;font style=&quot;font-size: 10px;&quot;&gt;3&lt;/font&gt;&lt;/b&gt;" style="text;html=1;align=center;verticalAlign=middle;whiteSpace=wrap;rounded=0;" parent="1" vertex="1">
          <mxGeometry x="510" y="229" width="20" height="15" as="geometry" />
        </mxCell>
        <mxCell id="JdqeZymZgtsDF4_kYVaT-56" value="&lt;b&gt;&lt;font style=&quot;font-size: 10px;&quot;&gt;4&lt;/font&gt;&lt;/b&gt;" style="text;html=1;align=center;verticalAlign=middle;whiteSpace=wrap;rounded=0;" parent="1" vertex="1">
          <mxGeometry x="510" y="308.5" width="20" height="15" as="geometry" />
        </mxCell>
        <mxCell id="JdqeZymZgtsDF4_kYVaT-57" value="&lt;b&gt;&lt;font style=&quot;font-size: 10px;&quot;&gt;5&lt;/font&gt;&lt;/b&gt;" style="text;html=1;align=center;verticalAlign=middle;whiteSpace=wrap;rounded=0;" parent="1" vertex="1">
          <mxGeometry x="509" y="389" width="20" height="15" as="geometry" />
        </mxCell>
        <mxCell id="JdqeZymZgtsDF4_kYVaT-58" value="&lt;b&gt;&lt;font style=&quot;font-size: 10px;&quot;&gt;6&lt;/font&gt;&lt;/b&gt;" style="text;html=1;align=center;verticalAlign=middle;whiteSpace=wrap;rounded=0;" parent="1" vertex="1">
          <mxGeometry x="671" y="154.5" width="20" height="15" as="geometry" />
        </mxCell>
        <mxCell id="JdqeZymZgtsDF4_kYVaT-59" value="&lt;b&gt;&lt;font style=&quot;font-size: 10px;&quot;&gt;7&lt;/font&gt;&lt;/b&gt;" style="text;html=1;align=center;verticalAlign=middle;whiteSpace=wrap;rounded=0;" parent="1" vertex="1">
          <mxGeometry x="874" y="145" width="20" height="15" as="geometry" />
        </mxCell>
        <mxCell id="JdqeZymZgtsDF4_kYVaT-60" value="&lt;b&gt;&lt;font style=&quot;font-size: 10px;&quot;&gt;8&lt;/font&gt;&lt;/b&gt;" style="text;html=1;align=center;verticalAlign=middle;whiteSpace=wrap;rounded=0;" parent="1" vertex="1">
          <mxGeometry x="874" y="241" width="20" height="15" as="geometry" />
        </mxCell>
        <mxCell id="JdqeZymZgtsDF4_kYVaT-61" value="&lt;b&gt;&lt;font style=&quot;font-size: 10px;&quot;&gt;9&lt;/font&gt;&lt;/b&gt;" style="text;html=1;align=center;verticalAlign=middle;whiteSpace=wrap;rounded=0;" parent="1" vertex="1">
          <mxGeometry x="874" y="339" width="20" height="15" as="geometry" />
        </mxCell>
        <mxCell id="JdqeZymZgtsDF4_kYVaT-62" value="&lt;b&gt;&lt;font style=&quot;font-size: 10px;&quot;&gt;10&lt;/font&gt;&lt;/b&gt;" style="text;html=1;align=center;verticalAlign=middle;whiteSpace=wrap;rounded=0;" parent="1" vertex="1">
          <mxGeometry x="873" y="415.5" width="20" height="15" as="geometry" />
        </mxCell>
        <mxCell id="JdqeZymZgtsDF4_kYVaT-98" value="" style="endArrow=classic;html=1;rounded=0;entryX=0.5;entryY=1;entryDx=0;entryDy=0;entryPerimeter=0;" parent="1" target="JdqeZymZgtsDF4_kYVaT-29" edge="1">
          <mxGeometry width="50" height="50" relative="1" as="geometry">
            <mxPoint x="618" y="424" as="sourcePoint" />
            <mxPoint x="708" y="387" as="targetPoint" />
            <Array as="points">
              <mxPoint x="708" y="424" />
            </Array>
          </mxGeometry>
        </mxCell>
        <mxCell id="JdqeZymZgtsDF4_kYVaT-99" style="edgeStyle=orthogonalEdgeStyle;rounded=0;orthogonalLoop=1;jettySize=auto;html=1;entryX=0.5;entryY=1;entryDx=0;entryDy=0;entryPerimeter=0;" parent="1" target="JdqeZymZgtsDF4_kYVaT-19" edge="1">
          <mxGeometry relative="1" as="geometry">
            <mxPoint x="518" y="423.5" as="sourcePoint" />
            <mxPoint x="618" y="354" as="targetPoint" />
          </mxGeometry>
        </mxCell>
        <mxCell id="JdqeZymZgtsDF4_kYVaT-100" value="" style="edgeStyle=orthogonalEdgeStyle;rounded=0;orthogonalLoop=1;jettySize=auto;html=1;" parent="1" source="JdqeZymZgtsDF4_kYVaT-19" target="JdqeZymZgtsDF4_kYVaT-25" edge="1">
          <mxGeometry relative="1" as="geometry" />
        </mxCell>
        <mxCell id="JdqeZymZgtsDF4_kYVaT-104" style="edgeStyle=orthogonalEdgeStyle;rounded=0;orthogonalLoop=1;jettySize=auto;html=1;entryX=0.004;entryY=0.697;entryDx=0;entryDy=0;entryPerimeter=0;exitX=0.5;exitY=0;exitDx=0;exitDy=0;exitPerimeter=0;" parent="1" source="JdqeZymZgtsDF4_kYVaT-29" target="JdqeZymZgtsDF4_kYVaT-27" edge="1">
          <mxGeometry relative="1" as="geometry" />
        </mxCell>
        <mxCell id="JdqeZymZgtsDF4_kYVaT-105" style="edgeStyle=orthogonalEdgeStyle;rounded=0;orthogonalLoop=1;jettySize=auto;html=1;entryX=0.25;entryY=0;entryDx=0;entryDy=0;" parent="1" source="JdqeZymZgtsDF4_kYVaT-29" target="JdqeZymZgtsDF4_kYVaT-38" edge="1">
          <mxGeometry relative="1" as="geometry" />
        </mxCell>
        <mxCell id="JdqeZymZgtsDF4_kYVaT-106" value="Optimized Model" style="rounded=1;whiteSpace=wrap;html=1;fontStyle=1;fillColor=#fff2cc;strokeColor=#d6b656;" parent="1" vertex="1">
          <mxGeometry x="762" y="429" width="119.5" height="40" as="geometry" />
        </mxCell>
        <mxCell id="JdqeZymZgtsDF4_kYVaT-161" value="" style="group;fontStyle=1" parent="1" vertex="1" connectable="0">
          <mxGeometry x="910" y="255" width="100" height="38" as="geometry" />
        </mxCell>
        <mxCell id="JdqeZymZgtsDF4_kYVaT-160" value="" style="shape=parallelogram;perimeter=parallelogramPerimeter;whiteSpace=wrap;html=1;fixedSize=1;fillColor=#f9f7ed;strokeColor=#36393d;" parent="JdqeZymZgtsDF4_kYVaT-161" vertex="1">
          <mxGeometry width="100" height="38" as="geometry" />
        </mxCell>
        <mxCell id="JdqeZymZgtsDF4_kYVaT-159" value="&lt;font style=&quot;font-size: 8px;&quot;&gt;&lt;b&gt;GridSearchCV&lt;/b&gt;&lt;/font&gt;" style="text;html=1;align=center;verticalAlign=middle;whiteSpace=wrap;rounded=0;" parent="JdqeZymZgtsDF4_kYVaT-161" vertex="1">
          <mxGeometry x="20" y="4" width="60" height="30" as="geometry" />
        </mxCell>
        <mxCell id="JdqeZymZgtsDF4_kYVaT-162" value="" style="edgeStyle=orthogonalEdgeStyle;rounded=0;orthogonalLoop=1;jettySize=auto;html=1;" parent="1" source="JdqeZymZgtsDF4_kYVaT-160" target="JdqeZymZgtsDF4_kYVaT-33" edge="1">
          <mxGeometry relative="1" as="geometry" />
        </mxCell>
        <mxCell id="JdqeZymZgtsDF4_kYVaT-166" value="" style="edgeStyle=orthogonalEdgeStyle;rounded=0;orthogonalLoop=1;jettySize=auto;html=1;" parent="1" source="JdqeZymZgtsDF4_kYVaT-164" target="JdqeZymZgtsDF4_kYVaT-9" edge="1">
          <mxGeometry relative="1" as="geometry" />
        </mxCell>
        <mxCell id="JdqeZymZgtsDF4_kYVaT-164" value="Transforms" style="swimlane;whiteSpace=wrap;html=1;fillColor=#f9f7ed;strokeColor=#36393d;" parent="1" vertex="1">
          <mxGeometry x="150" y="264.5" width="202" height="154" as="geometry" />
        </mxCell>
        <mxCell id="JdqeZymZgtsDF4_kYVaT-165" value="&lt;div&gt;&lt;ul&gt;&lt;li&gt;Duplicate Check&lt;/li&gt;&lt;li&gt;Drop Unnecessary Column&lt;/li&gt;&lt;li&gt;Handle Missing Values&lt;/li&gt;&lt;li&gt;Outliers Handling&lt;/li&gt;&lt;li&gt;Feature Selection&lt;/li&gt;&lt;li&gt;Feature Engineering&lt;/li&gt;&lt;li&gt;Label Encoding&lt;/li&gt;&lt;li&gt;Feature Scaling&lt;/li&gt;&lt;/ul&gt;&lt;/div&gt;" style="text;html=1;align=left;verticalAlign=middle;whiteSpace=wrap;rounded=0;" parent="JdqeZymZgtsDF4_kYVaT-164" vertex="1">
          <mxGeometry x="3" y="31" width="190" height="118" as="geometry" />
        </mxCell>
        <mxCell id="JdqeZymZgtsDF4_kYVaT-170" value="" style="edgeStyle=orthogonalEdgeStyle;rounded=0;orthogonalLoop=1;jettySize=auto;html=1;" parent="1" source="JdqeZymZgtsDF4_kYVaT-167" target="JdqeZymZgtsDF4_kYVaT-3" edge="1">
          <mxGeometry relative="1" as="geometry" />
        </mxCell>
        <mxCell id="JdqeZymZgtsDF4_kYVaT-167" value="Datasets" style="swimlane;whiteSpace=wrap;html=1;fillColor=#f9f7ed;strokeColor=#36393d;" parent="1" vertex="1">
          <mxGeometry x="142" y="63.75" width="210" height="100.5" as="geometry" />
        </mxCell>
        <mxCell id="JdqeZymZgtsDF4_kYVaT-169" value="&lt;div&gt;&lt;ul&gt;&lt;li&gt;Wind Power Production&lt;/li&gt;&lt;li&gt;Solar Power Production&lt;/li&gt;&lt;li&gt;Hybrid Power Production&lt;/li&gt;&lt;/ul&gt;&lt;/div&gt;" style="text;html=1;align=left;verticalAlign=middle;resizable=0;points=[];autosize=1;strokeColor=none;fillColor=none;" parent="JdqeZymZgtsDF4_kYVaT-167" vertex="1">
          <mxGeometry x="5" y="20.5" width="200" height="80" as="geometry" />
        </mxCell>
      </root>
    </mxGraphModel>
  </diagram>
</mxfile>
